/* XPM */
static char *regina64[] = {
/* columns rows colors chars-per-pixel */
"64 64 4 1",
"  c black",
". c red",
"X c gray100",
"o c None",
/* pixels */
"oooooooooooooooooooooooooooooooooooooooooooooooooooooooooooooooo",
"oooooooooooooooooooooooooooooooooooooooooooooooooooooooooooooooo",
"oooooooooooooooooooooooooooooo    oooooooooooooooooooooooooooooo",
"oooooooooooooooooooooooooooo        oooooooooooooooooooooooooooo",
"oooooooooooooooooooooooooooo        oooooooooooooooooooooooooooo",
"ooooooooooooooooooooooooooo          ooooooooooooooooooooooooooo",
"oooooooooooooooo    ooooooo          ooooooo    oooooooooooooooo",
"oooooooooooooo        ooooo          ooooo        oooooooooooooo",
"oooooooooooooo        ooooo          ooooo        oooooooooooooo",
"ooooooooooooo          ooooo        ooooo          ooooooooooooo",
"ooooooooooooo          ooooo        ooooo          ooooooooooooo",
"ooooooooooooo          ooooooo    ooooooo          ooooooooooooo",
"oooo    ooooo          oooooooo  oooooooo          ooooo    oooo",
"oo        oooo        ooooooooo  ooooooooo        oooo        oo",
"oo        oooo        ooooooooo  ooooooooo        oooo        oo",
"o          ooooo    ooooooooooo  ooooooooooo    ooooo          o",
"o          oooooo  ooooooooooo    ooooooooooo  oooooo          o",
"o          oooooo  ooooooooooo    ooooooooooo  oooooo          o",
"o          oooooo  ooooooooooo    ooooooooooo  oooooo          o",
"oo        ooooooo  oooooooooo      oooooooooo  ooooooo        oo",
"oo        ooooooo   ooooooooo      ooooooooo   ooooooo        oo",
"oooo    ooooooooo   ooooooooo      ooooooooo   ooooooooo    oooo",
"ooooo  oooooooooo    oooooooo      oooooooo    oooooooooo  ooooo",
"ooooo  oooooooooo    oooooooo      oooooooo    oooooooooo  ooooo",
"ooooo   ooooooooo     oooooo        oooooo     ooooooooo   ooooo",
"ooooo   ooooooooo     oooooo        oooooo     ooooooooo   ooooo",
"ooooo    oooooooo      ooooo        ooooo      oooooooo    ooooo",
"ooooo    oooooooo      ooooo        ooooo      oooooooo    ooooo",
"oooooo    ooooooo       oooo         ooo       ooooooo    oooooo",
"oooooo     oooooo       ooo          ooo       oooooo     oooooo",
"ooooooo     ooooo        oo          oo        ooooo     ooooooo",
"ooooooo      oooo        oo          oo        oooo      ooooooo",
"oooooooo      ooo                              ooo      oooooooo",
"oooooooo       oo                              oo       oooooooo",
"ooooooooo                                              ooooooooo",
"ooooooooo                                              ooooooooo",
"ooooooooooo          XX        XX        XX          ooooooooooo",
"ooooooooooo          XX        XX        XX          ooooooooooo",
"ooooooooo      XX          XX      XX          XX      ooooooooo",
"ooooooooo      XX          XX      XX          XX      ooooooooo",
"ooooooooo    ..     ......            ........   ..    ooooooooo",
"ooooooooo    ..    ........          ..........  ..    ooooooooo",
"ooooooooo  ..........................................  ooooooooo",
"ooooooooo  ..........................................  ooooooooo",
"ooooooooooo  ..........                  ..........  ooooooooooo",
"ooooooooooo  .........                    .........  ooooooooooo",
"ooooooooooo  ..                                  ..  ooooooooooo",
"ooooooooooo  ..                                  ..  ooooooooooo",
"ooooooooooooo                                      ooooooooooooo",
"ooooooooooooo                                      ooooooooooooo",
"ooooooooooooooo         ................         ooooooooooooooo",
"ooooooooooooooo        ..................        ooooooooooooooo",
"ooooooooooooo  ..................................  ooooooooooooo",
"ooooooooooooo  ..................................  ooooooooooooo",
"ooooooooooo  ........                      ........  ooooooooooo",
"ooooooooooo  .......                        .......  ooooooooooo",
"ooooooooo                                              ooooooooo",
"ooooooooo                                              ooooooooo",
"ooooooooooo                                          ooooooooooo",
"ooooooooooo                                          ooooooooooo",
"oooooooooooooooooooooooooooooooooooooooooooooooooooooooooooooooo",
"oooooooooooooooooooooooooooooooooooooooooooooooooooooooooooooooo",
"oooooooooooooooooooooooooooooooooooooooooooooooooooooooooooooooo",
"oooooooooooooooooooooooooooooooooooooooooooooooooooooooooooooooo"
};
